<?xml version="1.0"?>
<svg xmlns="http://www.w3.org/2000/svg" width="85" height="79" viewBox="0 0 85 79">
  <title>turkey</title>
  <g transform="translate(-6)" fill="none" fill-rule="evenodd">
    <g fill="#FFF">
      <path d="M47.7 36.042c4.805 0 8.7 1.1 8.7-11.793C56.4 11.355 59.096.903 47.7.903 36.304.903 39 11.355 39 24.249c0 12.893 3.896 11.793 8.7 11.793z"/>
      <path d="M50.902 36.915c4.198 2.222 7.08 4.996 13.178-6.418 6.097-11.414 13.396-19.421 3.44-24.69C57.565.54 54.977 11.038 48.88 22.453c-6.098 11.414-2.175 12.24 2.022 14.462z"/>
      <path d="M53.809 38.899c2.726 3.875 4.03 7.65 14.668.235 10.64-7.415 20.795-11.25 14.327-20.444-6.467-9.193-13.562-1.007-24.2 6.408-10.64 7.415-7.522 9.925-4.795 13.8z"/>
      <path d="M55.323 41.73c.58 4.697-.05 8.638 12.84 7.063 12.892-1.576 23.667-.217 22.293-11.356-1.374-11.14-11.5-7.227-24.39-5.651-12.892 1.575-11.322 5.248-10.743 9.944z"/>
      <path d="M55.387 44.944c-1.703 4.417-4.119 7.603 8.007 12.235 12.125 4.633 20.999 10.868 25.04.39 4.04-10.477-6.746-11.753-18.871-16.386-12.126-4.633-12.472-.657-14.176 3.76zM42.485 46.66c-1.703-4.417-2.05-8.393-14.175-3.76-12.126 4.632-22.912 5.909-18.87 16.386 4.04 10.477 12.913 4.243 25.039-.39 12.125-4.633 9.71-7.819 8.006-12.236z"/>
      <path d="M41.673 43.553c.58-4.697 2.149-8.37-10.742-9.945C18.039 32.033 7.914 28.12 6.54 39.26 5.166 50.4 15.94 49.04 28.833 50.615c12.89 1.576 12.26-2.366 12.84-7.062z"/>
      <path d="M42.362 40.41c2.727-3.876 5.845-6.386-4.795-13.8-10.639-7.416-17.734-15.602-24.2-6.409-6.468 9.193 3.687 13.03 14.326 20.444 10.64 7.415 11.942 3.64 14.669-.236z"/>
      <path d="M44.683 37.768c4.197-2.22 8.12-3.048 2.023-14.462C40.608 11.89 38.02 1.392 28.065 6.66c-9.955 5.27-2.657 13.276 3.44 24.69 6.098 11.414 8.98 8.64 13.178 6.418z"/>
    </g>
    <g fill="#FBC553">
      <path d="M48.114 37.002c4.467 0 8.088 1.041 8.088-11.163 0-12.205 2.507-22.098-8.088-22.098-10.595 0-8.088 9.893-8.088 22.098 0 12.204 3.621 11.163 8.088 11.163z"/>
      <path d="M51.135 37.297c3.944 2.097 6.653 4.717 12.382-6.06 5.73-10.775 12.588-18.334 3.233-23.308-9.354-4.974-11.786 4.939-17.515 15.715-5.73 10.775-2.044 11.556 1.9 13.653z"/>
      <path d="M53.866 39.17c2.562 3.659 3.787 7.222 13.784.222s19.54-10.621 13.462-19.3c-6.077-8.68-12.743-.951-22.74 6.05-9.998 7-7.068 9.368-4.506 13.027z"/>
      <path d="M55.29 41.843c.543 4.434-.049 8.155 12.065 6.667 12.113-1.487 22.238-.205 20.947-10.72-1.29-10.517-10.805-6.823-22.919-5.335-12.113 1.487-10.638 4.954-10.094 9.388z"/>
      <path d="M55.35 44.876c-1.601 4.17-3.871 7.178 7.523 11.552 11.393 4.373 19.732 10.26 23.528.368 3.797-9.891-6.338-11.096-17.731-15.47-11.394-4.374-11.72-.62-13.32 3.55zM43.226 46.497c-1.6-4.17-1.926-7.924-13.32-3.55-11.394 4.373-21.529 5.578-17.732 15.47 3.797 9.89 12.135 4.005 23.529-.369 11.394-4.373 9.124-7.38 7.523-11.551z"/>
      <path d="M42.463 43.563c.544-4.433 2.02-7.9-10.094-9.388-12.114-1.487-21.628-5.181-22.92 5.335-1.29 10.516 8.835 9.233 20.948 10.72 12.114 1.488 11.522-2.233 12.066-6.667z"/>
      <path d="M43.11 40.596c2.562-3.66 5.492-6.028-4.505-13.028-9.997-7-16.664-14.729-22.74-6.05-6.078 8.679 3.464 12.3 13.462 19.3 9.997 7 11.221 3.437 13.783-.222z"/>
      <path d="M45.291 38.103c3.944-2.098 7.63-2.878 1.9-13.654-5.729-10.776-8.16-20.688-17.515-15.714-9.355 4.974-2.497 12.532 3.233 23.308s8.438 8.157 12.382 6.06z"/>
    </g>
    <g fill="#EF7200">
      <path d="M48.529 38.384c4.02 0 7.278.94 7.278-10.076 0-11.015 2.255-19.945-7.278-19.945s-7.278 8.93-7.278 19.945c0 11.016 3.258 10.076 7.278 10.076z"/>
      <path d="M51.04 38.672c3.535 1.894 5.963 4.26 11.1-5.473 5.136-9.733 11.283-16.56 2.897-21.053-8.385-4.493-10.565 4.46-15.701 14.193-5.136 9.733-1.832 10.438 1.704 12.333z"/>
      <path d="M53.488 40.363c2.297 3.305 3.394 6.523 12.356.2 8.962-6.322 17.515-9.593 12.068-17.432-5.448-7.839-11.424-.859-20.386 5.464-8.961 6.323-6.335 8.463-4.038 11.768z"/>
      <path d="M54.763 42.777c.488 4.005-.043 7.366 10.816 6.023 10.86-1.344 19.936-.186 18.778-9.684-1.157-9.498-9.686-6.162-20.545-4.818-10.859 1.343-9.537 4.475-9.049 8.48z"/>
      <path d="M54.817 45.517c-1.435 3.767-3.47 6.483 6.744 10.434 10.214 3.95 17.689 9.266 21.092.333 3.404-8.934-5.681-10.023-15.895-13.974-10.214-3.95-10.506-.56-11.94 3.207zM43.95 46.981c-1.435-3.767-1.727-7.157-11.941-3.207s-19.299 5.04-15.895 13.973c3.403 8.934 10.878 3.618 21.092-.332 10.213-3.95 8.179-6.667 6.744-10.434z"/>
      <path d="M43.266 44.331c.488-4.004 1.81-7.136-9.05-8.48-10.858-1.343-19.387-4.68-20.544 4.82-1.158 9.497 7.919 8.34 18.778 9.683 10.858 1.343 10.328-2.018 10.816-6.023z"/>
      <path d="M43.846 41.651c2.297-3.305 4.923-5.445-4.039-11.767-8.962-6.323-14.938-13.303-20.385-5.465-5.448 7.84 3.106 11.11 12.068 17.433s10.059 3.104 12.356-.201z"/>
      <path d="M45.8 39.399c3.536-1.894 6.84-2.6 1.705-12.332-5.137-9.733-7.316-18.686-15.702-14.194-8.386 4.493-2.238 11.32 2.898 21.053s7.564 7.367 11.1 5.473z"/>
    </g>
    <path d="M36.056 74c-2.139.655-3.506 1.277-4.101 1.865-.428.424-.713 1.083-.855 1.979A1 1 0 0 0 32.088 79h4.215a4 4 0 0 0 2.38-.785L41 76.5 36.056 74zM61.944 74c2.139.655 3.506 1.277 4.101 1.865.428.424.713 1.083.855 1.979A1 1 0 0 1 65.912 79h-4.215a4 4 0 0 1-2.38-.785L57 76.5l4.944-2.5z" fill="#703400"/>
    <circle fill="#A04B00" cx="48.962" cy="51.259" r="27.297"/>
    <g transform="translate(32.93 47.359)">
      <path d="M13.197 17.858c.82-1.96.187-9.694-.709-12.613-.58-1.893-1.803.525-3.665 7.254-.102.368-.054.76.133 1.093 2.302 4.098 3.716 5.52 4.24 4.266zM22.19 19.754c-1.264-2.2-2.451-11.621-2.254-15.302.13-2.409 1.925.337 5.388 8.238.126.288.155.61.081.916-1.325 5.525-2.397 7.574-3.216 6.148z" fill="#E12332"/>
      <path d="M17.312 11.818c.334-.366.698-.836 1.092-1.41.814-1.187 1.944-3.01 3.39-5.47a1.444 1.444 0 0 0-.075-1.578C20.377 1.505 18.532.578 16.182.578c-2.304 0-4.126.891-5.467 2.675a1.444 1.444 0 0 0-.009 1.724c1.797 2.44 2.998 4.25 3.604 5.43.26.507.513.933.76 1.277a1.444 1.444 0 0 0 2.242.134z" fill="#FBC553"/>
      <circle fill="#15131B" cx="3.177" cy="3.177" r="3.177"/>
      <circle fill="#FFF" cx="2.448" cy="2.142" r="1.122"/>
      <circle fill="#15131B" cx="28.886" cy="3.177" r="3.177"/>
      <circle fill="#FFF" cx="28.216" cy="1.938" r="1.122"/>
      <ellipse fill="#713300" cx="2.964" cy="9.84" rx="2.619" ry="1.122"/>
      <ellipse fill="#713300" cx="29.149" cy="9.84" rx="2.619" ry="1.122"/>
    </g>
    <path d="M70.957 57.67c4.004 2.259 8.057 1.501 12.159-2.274s6.147-10.885 6.134-21.33c-5.384 2.954-9.34 6.062-11.87 9.327-2.53 3.264-4.671 8.023-6.423 14.276zM26.39 57.67c-4.005 2.259-8.057 1.501-12.16-2.274-4.101-3.775-6.146-10.885-6.133-21.33 5.383 2.954 9.34 6.062 11.87 9.327 2.53 3.264 4.67 8.023 6.422 14.276z" fill="#703400"/>
  </g>
</svg>
